<svg id="elements" xmlns="http://www.w3.org/2000/svg" viewBox="0 0 229.23 435.27"><defs><style>.cls-1{fill-rule:evenodd;}</style></defs><path class="cls-1" d="M238.82,365.72c3.89,1.65,7.25,1,10.44-.36l9.39,6.69h6.83l2.55-2.81A25.8,25.8,0,0,0,266.59,357a12.54,12.54,0,0,0-6.32-6.79,11.81,11.81,0,0,0-1.74-1.07c-6.26-2-9.76-6.55-12.37-12.29-1.42-3.11-2.64-6.57-6.53-8.52a22.67,22.67,0,0,0-3.73.05,19.48,19.48,0,0,0-3.56,1.24,25,25,0,0,0-2.51,12.25l1.5,2A36.15,36.15,0,0,1,218.05,351c-1.11-2.95.27-6.15,1.59-8.46,5.33-9.25,9.54-19.06,14.55-28.46,1.66-3.13,2.9-6.48,4.68-9.54a30.49,30.49,0,0,0,3.19-9.67,29.3,29.3,0,0,0,.85-8.33c-.59-6.86-.15-14-4.31-20.08-.8-5.45-3.24-10.38-5.63-15.16-2.13-4.24-4.53-8.63-9.35-10.9-1.43-.67-2.23-2.29-2.71-4.29-1.25-5.23-3.36-10.26-5-15.39a10.77,10.77,0,0,1-.27-3.17c0-3.83.18-7.67-.08-11.49-.15-2.39.84-4.44,1.11-6.67.3-2.49-.63-5.51.48-7.44,1.25-2.17-.73-4.88,1.71-6.43.41-3.67.81-7.34,1.21-11.06l2.67-2.67h8c9.64,5,18.65,9.64,27.72,14.2a18.64,18.64,0,0,1,8.22,7.74,55.69,55.69,0,0,0,5,7.22,207.39,207.39,0,0,1,17.31,25.66,70,70,0,0,0,4,6.55c3,4,3.07,8.38,2.12,13-.21,1-.74,2.07-.57,3,.81,4.52.32,9.5,4.3,13,.18.16-.06.74.07,1s.49.53.79.82c-.83,1.7-1.72,3.44.75,5h3.49l2.56-3.55c-.18-.59-.63-2-1.07-3.49.35-.05.67-.21.86-.11,3.68,1.72,6.42,4.73,8.73,7.8,3.79,5,3.23,5.06,11.12,8.41l6.06-4.23a42.6,42.6,0,0,1-3.32-3.69c-2.54-3.57-5.86-6.49-8.22-10.25-2-3.19-3.48-6.64-5.92-9.67A16.28,16.28,0,0,1,310.7,241a13.21,13.21,0,0,0-2.12-5.64c-4.38-7.5-7.22-15.69-9.65-23.89a72.32,72.32,0,0,0-13.83-26.58c-1.65-1.95-2.61-4.51-4.36-6.35a34.57,34.57,0,0,0-7-5.56c-3.2-1.94-6-4.42-9.63-5.81-1.24-.48-2.19-1.89-3.11-3-2.81-3.43-6.23-6.48-10.28-8-6.51-2.42-11.58-6.78-16.71-11.22-3.11-2.69-6.68-4.84-9.75-7-7,.13-13-2.47-19.29-3.47s-12.6-.53-19-2.54c-1.07-2.23-3.69-4.29-1.24-7.72.75-1,.12-3.09.12-4.69.84-.1,2.69-9.76,3.26-12.5.72-3.5.35-9.18.63-11.84-1.57-3.77-2.2-8.72-5.93-12.52,0-2-11.2-10.27-13.17-9.31-1.46,0-3.47-.14-5.45,0a32,32,0,0,0-5,1.07c-1.14.3-2.56.46-3.29,1.21-4.63,4.75-10.14,8.8-11.83,15.89a19,19,0,0,0-.7,4c-.06,6.2.11,12.4-.06,18.6-.2,7.4,3,13.61,6.49,19.75.76,1.33,1.64,2.58,2.58,4.06-3.26,2.79-7,4-10.82,5.43-7.4,2.73-14.2,6.6-19.24,12.87a18,18,0,0,0-2.72,5.95,25.42,25.42,0,0,1-4.2,8.7c-1.23,1.53-3,3.77-.51,6,0,7.21.53,14.42-2.75,21.3-3,6.38-5.27,13.14-8.53,19.44a8,8,0,0,0-.72,3.51c-.08,5.28,0,10.56,0,15.9l6.75,9.09a13.49,13.49,0,0,0,13-9.39c1.3-3.7,1.33-7.67,3.12-11.29,1.63-3.3,2.22-7.1,3.59-10.55,1.45-3.67,2-7.55,3.05-11.31.69-2.47,1-5,1.67-8.26,1.45,2.64,3.05,4.7,3.71,7a30.41,30.41,0,0,0,2.24,5.11,184,184,0,0,1,8.82,22.6c.8,2.41,1.13,5,2.28,7.25,1.43,2.71,1.6,5.74,1.9,8.46.77,7.08,1.94,14.2,1.34,21.41a80.07,80.07,0,0,0,0,8.2c0,2.8-.07,5.53.95,8.34.93,2.56.3,5.46,1,8.32.95,4,.24,8.32.24,12.66a10,10,0,0,1,2.37,4.38c.93,3.88,2.9,7.55,4.56,11.2,5.8,12.75,12,25.33,18.32,37.81a52.62,52.62,0,0,0,7.67,11c2.7,3.05,4.36,6.6,6.46,10.63a39,39,0,0,1-.93,8.74c-.56,3-.31,6.22-2,9.06a3.34,3.34,0,0,0-.28,2.56c2,4.87.94,9.94.94,14.89,0,3.24.86,6.26,1.2,9.39.32,3-.86,6.08,1.06,8.87.25.38,0,1.08,0,1.62.35,4.77.09,9.71,1.25,14.28,1.41,5.56.5,11.05.94,16.54a15.47,15.47,0,0,1-2.19,8.94c-.33.59-.93,1.22-.89,1.8.33,5-3.29,7.56-6.24,10.56h-5.1l-2.76,1.43-1.42,2.76V498c2,5.09,5.91,6.76,10.58,7.7,3.53.71,6.88,2.32,10.6,2.11,1,1.64,1.94,0,2.92,0,1.27-.05,2.55,0,3.93,0a16.42,16.42,0,0,0,3.72-9.39,13.9,13.9,0,0,1,.82-2.93c1.7-5,1.62-10.79.48-16.57a16.75,16.75,0,0,1,.32-8.44c.93-2.94,2-5.93,1.69-9.18a17.57,17.57,0,0,1,.94-7.79c.89-2.4-.14-5.07.95-7.81.88-2.2.64-5.1,1.28-7.67s.09-5.58,1.33-7.63c1.48-2.44.31-5.08,1.81-7.53,1.11-1.82.34-4.66,1.14-7.13,1-3.1.77-6.59,1.29-9.88.38-2.4,1.9-4.86.95-7.17-1.22-3-.82-5.92-1-8.89a12.29,12.29,0,0,1,2.08-7.37c2.84-4.76,6.33-9,9.48-13.54C235.75,367.51,237.5,366.72,238.82,365.72Z" transform="translate(-102.87 -73.25)"/></svg>